<svg width="114" height="24" fill="none" xmlns="http://www.w3.org/2000/svg"><path d="M11.128.568c2.923 0 5.184.704 6.784 2.112 1.6 1.387 2.4 3.36 2.4 5.92 0 2.71-.8 4.821-2.4 6.336-1.6 1.493-3.861 2.24-6.784 2.24H4.792l3.232-3.232V23H.6V.568h10.528zm-.384 10.976c.81 0 1.43-.235 1.856-.704.448-.49.672-1.163.672-2.016 0-.832-.224-1.472-.672-1.92-.427-.47-1.045-.704-1.856-.704H4.792l3.232-3.232v11.808l-3.232-3.232h5.952zM21.738.568h7.424V23h-7.424V.568zm26.048 8.768a7.73 7.73 0 0 0-2.4-2.24c-.917-.555-1.813-.832-2.688-.832-.66 0-1.28.139-1.855.416A4.364 4.364 0 0 0 39.37 7.8a4.945 4.945 0 0 0-.991 1.696 6.647 6.647 0 0 0-.32 2.112c0 .79.106 1.515.32 2.176.234.661.565 1.237.992 1.728.426.47.917.843 1.471 1.12a4.518 4.518 0 0 0 1.857.384c.81 0 1.674-.235 2.592-.704a9.08 9.08 0 0 0 2.495-1.92l4.288 4.576a13.678 13.678 0 0 1-2.88 2.4 14.498 14.498 0 0 1-3.392 1.6 11.762 11.762 0 0 1-3.487.544c-1.728 0-3.318-.288-4.768-.864a11.781 11.781 0 0 1-3.744-2.464 11.517 11.517 0 0 1-2.496-3.744c-.576-1.45-.864-3.03-.864-4.736 0-1.685.298-3.232.895-4.64a11.01 11.01 0 0 1 2.529-3.68A11.915 11.915 0 0 1 37.739.952c1.493-.576 3.114-.864 4.864-.864 1.151 0 2.303.17 3.456.512 1.173.341 2.272.821 3.296 1.44a11.526 11.526 0 0 1 2.72 2.208l-4.289 5.088zM52.794.568h7.424V8.76L66.906.568h8.544L60.218 17.56V23h-7.424V.568zm14.144 8.224L75.93 23h-8.864l-5.088-8.384 4.96-5.824zM76.744.568h7.424v16.256h9.344V23H76.744V.568zm17.887 0h18.976V6.2h-11.552v2.752h10.496v5.632h-10.496v2.784h11.84V23H94.631V.568z" fill="#fff"/></svg>