<svg width="83" height="52" fill="none" xmlns="http://www.w3.org/2000/svg"><path d="M76.86 2.419 50.13 0l-2.707 9.384 20.834-.967-.193.725-17.064 1.161-1.354 6.579 16.968-2.419-.85 2.884-20.952 2.389-4.109 9.82L80.1 25.926 83 15.382l-9.987 1.139 2.646-9.7 5.054-1.243-4.729.053v-.002l-4.54-.103 4.847-1.02.57-2.087z" fill="#000"/><path d="M30.454 28.394 33.886 2.42 44.715.822l-2.221 11.196-4.53.953 4.322.098-.001.004 4.482-.05-4.702 1.157-2.378 11.99-9.233 2.224z" fill="#000"/><path fill-rule="evenodd" clip-rule="evenodd" d="m2.804 7.014 28.375-4.257-.628 8.369-2.224.483-1.257 10.158 2.804-.677-.386 6.676L0 35.215l1.354-8.272 3.335-.725.725-10.062-4.06.726 1.45-9.868zm13.148 6.965 2.369-.483-.338 10.013-2.708.58.677-10.11z" fill="#000"/><path d="m15.856 32.651 23.783-2.467-1.643 4.97-5.148 1.084 4.59.104 4.678-.052-4.893 1.203L33.5 48.76l-9.475 1.161 1.257-7.691-11.263 1.403 1.837-10.98zM71.205 27.379l-20.496 1.886-2.079 7.401 13.1-1.21-.386 1.307-12.424 1.16L45.005 52l25.91-2.37 2.949-7.546-19.675 1.79.387-1.307 11.118-1.015 5.511-14.173z" fill="#000"/></svg>