<svg width="72" height="46" fill="none" xmlns="http://www.w3.org/2000/svg"><path d="M66.674 2.14 43.485 0l-2.348 8.301 18.073-.855-.168.641L44.24 9.114l-1.174 5.82 14.718-2.14-.737 2.552-18.174 2.113-3.565 8.686 34.176-3.21L72 13.608l-8.663 1.008L66.674 2.14zM26.418 25.118 29.395 2.14 38.79.727 34.428 23.15l-8.01 1.968z" fill="#000"/><path fill-rule="evenodd" clip-rule="evenodd" d="m2.432 6.205 24.615-3.766-.545 7.403-1.929.428-1.09 8.986 2.432-.6-.335 5.906L0 31.152l1.174-7.318 2.894-.641.629-8.9-3.523.641 1.258-8.73zm11.406 6.162 2.055-.428-.294 8.857-2.348.514.587-8.943z" fill="#000"/><path d="M13.754 28.884 34.386 26.7 29.06 43.133l-8.219 1.027 1.09-6.804-9.77 1.241 1.593-9.713zM61.768 24.22l-17.78 1.668-1.803 6.547 11.364-1.07-.335 1.156-10.777 1.027L39.04 46l22.477-2.097 2.557-6.675-17.066 1.583.335-1.155 9.645-.899 4.78-12.537z" fill="#000"/></svg>