<svg width="20" height="20" fill="none" xmlns="http://www.w3.org/2000/svg"><path d="M6.612 9.435c1.317-1.317 1.976-4.611 1.976-4.611s.659 3.294 1.977 4.611c1.317 1.318 4.611 1.977 4.611 1.977s-3.294.659-4.611 1.976C9.247 14.706 8.588 18 8.588 18s-.659-3.294-1.976-4.612C5.294 12.071 2 11.412 2 11.412s3.294-.66 4.612-1.977zM14.33 3.976c.564-.564.847-1.976.847-1.976s.282 1.412.847 1.976c.564.565 1.976.848 1.976.848s-1.412.282-1.976.847c-.565.564-.848 1.976-.848 1.976s-.282-1.412-.847-1.976c-.564-.565-1.976-.848-1.976-.848s1.412-.282 1.976-.847zM14.753 16.165c.282-.283.424-.988.424-.988s.14.705.423.988c.282.282.988.423.988.423s-.706.141-.988.424c-.282.282-.423.988-.423.988s-.142-.706-.424-.988c-.282-.283-.988-.424-.988-.424s.706-.14.988-.423z" fill="#FF144D"/></svg>