<svg width="24" height="24" fill="none" xmlns="http://www.w3.org/2000/svg"><path d="m10.672 18.89-.966-.258a1.5 1.5 0 0 0-.777 2.898l.966.259a1.5 1.5 0 1 0 .777-2.898z" fill="#E68E51"/><g filter="url(#a)"><path d="M15.296 3.566a1 1 0 0 0-1.932-.518l-1.294 4.83a1 1 0 0 0 1.932.517l1.294-4.83z" fill="#E68E51"/></g><path d="M4.98 11.154c1.585-5.916 6.32-5.553 8.573-4.95 2.254.604 6.535 2.657 4.95 8.574-1.585 5.916-2.204 4.844-2.204 4.844s.619 1.072.392 1.917L9.93 19.727l-6.762-1.811c.227-.845 1.299-1.464 1.299-1.464s-1.072.619.513-5.298z" fill="#FFBA4D" stroke="#FFBA4D" stroke-linecap="round" stroke-linejoin="round"/><path d="m5.488 16.984 9.66 2.589" stroke="#E68E51" stroke-opacity=".5" stroke-linecap="round" stroke-linejoin="round"/><defs><filter id="a" x="12.036" y="2.307" width="3.294" height="10.83" filterUnits="userSpaceOnUse" color-interpolation-filters="sRGB"><feFlood flood-opacity="0" result="BackgroundImageFix"/><feBlend in="SourceGraphic" in2="BackgroundImageFix" result="shape"/><feColorMatrix in="SourceAlpha" values="0 0 0 0 0 0 0 0 0 0 0 0 0 0 0 0 0 0 127 0" result="hardAlpha"/><feOffset dy="4"/><feGaussianBlur stdDeviation="2"/><feComposite in2="hardAlpha" operator="arithmetic" k2="-1" k3="1"/><feColorMatrix values="0 0 0 0 0 0 0 0 0 0 0 0 0 0 0 0 0 0 0.25 0"/><feBlend in2="shape" result="effect1_innerShadow_1440_10403"/></filter></defs></svg>