<svg width="24" height="24" fill="none" xmlns="http://www.w3.org/2000/svg"><path d="M14.5 4.313c0-1.75-2.5-1.75-2.5 0v2m0 0L6 8.291l6 1.02 6-1.02-6-1.98z" stroke="#54575C" stroke-linecap="round" stroke-linejoin="round"/><path d="M9.412 7.271c1.096 1.457 4.08 1.457 5.176 0 .406-.539 1.066-1.067 1.71-.867l4.788 1.493a1 1 0 0 1 .67 1.21l-.757 2.86a1 1 0 0 1-1.197.718l-.322-.076a1 1 0 0 0-1.23.973V19a1 1 0 0 1-1 1H6.75a1 1 0 0 1-1-1v-5.418a1 1 0 0 0-1.23-.973l-.322.076A1 1 0 0 1 3 11.967l-.756-2.86a1 1 0 0 1 .669-1.21l4.788-1.493c.644-.2 1.304.328 1.71.867z" fill="#FF144D"/><path d="m9.551 13.343 2.091-2.494a.4.4 0 0 1 .707.26l-.014 2.489a.4.4 0 0 0 .4.402h.434a.4.4 0 0 1 .312.65l-2 2.505a.4.4 0 0 1-.712-.236l-.089-2.533a.4.4 0 0 0-.4-.386h-.422a.4.4 0 0 1-.307-.657z" fill="#000"/></svg>