<svg width="24" height="24" fill="none" xmlns="http://www.w3.org/2000/svg"><path d="M5.131 9H21v5c0 2-1.5 7-7.934 7-10.91 0-11.901-10-7.935-10V9z" fill="#FED29F"/><path d="M8.107 13c1.984 0 3.968 2 3.968 4" stroke="#F8BC92" stroke-linecap="round" stroke-linejoin="round"/><g filter="url(#a)" fill="#FED29F"><path d="M9.098 5.984a1.984 1.984 0 1 0-3.967 0v5.033a1.984 1.984 0 0 0 3.967 0V5.984zM21 6.984a1.984 1.984 0 0 0-3.968 0v4.033a1.984 1.984 0 0 0 3.967 0V6.984z"/><path d="M13.065 4.984a1.984 1.984 0 0 0-3.967 0v4.032a1.984 1.984 0 0 0 3.967 0V4.984zM17.032 5.984a1.984 1.984 0 0 0-3.967 0v4.033a1.984 1.984 0 0 0 3.967 0V5.984zM5.147 11a2 2 0 1 0 0 4H8.09a2 2 0 1 0 0-4H5.147z"/></g><defs><filter id="a" x="3.147" y="3" width="17.852" height="13" filterUnits="userSpaceOnUse" color-interpolation-filters="sRGB"><feFlood flood-opacity="0" result="BackgroundImageFix"/><feColorMatrix in="SourceAlpha" values="0 0 0 0 0 0 0 0 0 0 0 0 0 0 0 0 0 0 127 0" result="hardAlpha"/><feOffset dy="1"/><feComposite in2="hardAlpha" operator="out"/><feColorMatrix values="0 0 0 0 0.972549 0 0 0 0 0.737255 0 0 0 0 0.572549 0 0 0 1 0"/><feBlend in2="BackgroundImageFix" result="effect1_dropShadow_1440_10433"/><feBlend in="SourceGraphic" in2="effect1_dropShadow_1440_10433" result="shape"/></filter></defs></svg>